<?xml version="1.0" standalone="no"?>
<!DOCTYPE svg PUBLIC "-//W3C//DTD SVG 20010904//EN"
 "http://www.w3.org/TR/2001/REC-SVG-20010904/DTD/svg10.dtd">
<svg version="1.0" xmlns="http://www.w3.org/2000/svg"
 width="241.000000pt" height="241.000000pt" viewBox="0 0 241.000000 241.000000"
 preserveAspectRatio="xMidYMid meet">
<metadata>
Created by potrace 1.14, written by Peter Selinger 2001-2017
</metadata>
<g transform="translate(0.000000,241.000000) scale(0.100000,-0.100000)"
fill="#000000" stroke="none">
<path d="M853 2398 c-14 -4 -47 -27 -72 -51 -25 -24 -79 -65 -118 -91 -153
-100 -168 -142 -159 -453 6 -210 6 -223 -11 -223 -28 -1 -53 -25 -53 -51 1
-49 37 -195 59 -237 12 -23 21 -48 20 -55 -4 -31 3 -56 21 -77 22 -25 23 -28
41 -120 18 -93 47 -153 124 -255 37 -49 69 -95 72 -101 2 -6 -8 -22 -24 -34
-15 -12 -46 -38 -68 -59 -22 -20 -73 -63 -113 -95 -71 -56 -144 -138 -165
-185 -10 -20 -8 -27 18 -48 116 -95 308 -189 481 -235 77 -20 111 -23 249 -22
141 1 170 4 245 27 118 35 210 79 308 144 81 54 263 218 283 255 8 14 1 27
-32 63 -48 52 -207 183 -296 243 -61 42 -70 51 -118 124 l-23 36 23 59 c14 32
27 78 30 103 14 105 15 110 36 110 23 0 56 50 65 100 4 19 18 58 32 88 18 40
24 72 25 125 1 81 -12 114 -48 123 -30 7 -33 22 -39 214 -5 175 -20 233 -78
296 -22 24 -49 46 -60 50 -11 3 -28 26 -38 50 -48 112 -167 175 -340 181 -222
8 -251 8 -277 1z"/>
</g>
</svg>
